<svg xmlns="http://www.w3.org/2000/svg" viewBox="0 0 512 512" xml:space="preserve"><g fill="#ffe100"><path d="M145 85.3a8 8 0 0 1-8.5-8.5V25.6c0-5.1 3.4-8.5 8.6-8.5a8 8 0 0 1 8.5 8.5v51.2c0 5.1-3.4 8.5-8.5 8.5m238.9 0c-5.1 0-8.5-3.4-8.5-8.5V25.6c0-5.1 3.4-8.5 8.5-8.5s8.5 3.4 8.5 8.5v51.2c0 5.1-3.4 8.5-8.5 8.5"/><path d="M179.2 34.1h-34.1c-5.2 0-8.6-3.4-8.6-8.5s3.4-8.5 8.6-8.5h34.1c5.1 0 8.5 3.4 8.5 8.5s-3.4 8.5-8.5 8.5m204.8 0h-34.1c-5.2 0-8.6-3.4-8.6-8.5s3.4-8.5 8.6-8.5H384c5.1 0 8.5 3.4 8.5 8.5s-3.4 8.5-8.5 8.5M111 358.4c-5.2 0-8.6-3.4-8.6-8.5V290c0-5 3.4-8.5 8.5-8.5s8.6 3.4 8.6 8.5v60c0 5-3.4 8.5-8.6 8.5"/><path d="M128 332.8H93.9c-5.2 0-8.6-3.4-8.6-8.5 0-5.2 3.4-8.6 8.6-8.6H128c5.1 0 8.5 3.4 8.5 8.6a8 8 0 0 1-8.5 8.5"/></g><path d="M336.2 42.7H175.8a5.5 5.5 0 0 1-5.1-5.2V13.7c0-2.6 2.5-5.2 5-5.2h159.7c3.4 0 6 2.6 6 5.2v23c0 3.4-2.6 6-5.2 6" fill="#00da6c"/><g fill="#ffe100"><path d="m471.9 369.5-19.6-98.1c-12.8-64.9-9.4-105.9-2.6-171.6.9-12-8.5-23-20.5-23H8.5v50.3c0 57.2 6.9 88.8 20.5 144.3A25.6 25.6 0 0 0 53.8 290h100.7c13.6 0 24.7-11 24.7-24.7v-77.7h102.4V401H8.6v102.4h448.8c11 0 20.5-9.4 20.5-20.5v-32.4a507 507 0 0 0-6-81.1"/><path d="m471.9 369.5-19.6-98.1c-12.8-64.9-9.4-105.9-2.6-171.6.9-12-8.5-23-20.5-23h-395v50.3c0 57.2 6.8 88.8 20.4 144.3A25.6 25.6 0 0 0 79.4 290h75c13.7 0 24.8-11 24.8-24.7v-77.7h102.4V401H34.1v102.4h423.3c11 0 20.5-9.4 20.5-20.5v-32.4a507 507 0 0 0-6-81.1"/></g><path d="M8.5 503.5h25.6V401H8.5zm45.3-213.4h25.6a24.7 24.7 0 0 1-24-18.7c-14.4-55.5-21.3-87-21.3-144.3V76.8H8.5v50.3c0 57.2 6.9 88.8 20.5 144.3A25.6 25.6 0 0 0 53.8 290" fill="#fff"/><path d="m495 369.5-19.7-98.1c-12.8-64.9-9.4-105.9-2.6-171.6 1.8-12.8-8.5-23-20.4-23h-25.6c12 0 22.2 10.2 20.4 23-6.8 65.7-10.2 106.7 2.6 171.6l19.6 98c4.3 26.5 6 53.9 6 80.3v32.4c0 11.1-9.4 20.5-20.5 20.5h25.6c11.1 0 20.5-9.4 20.5-20.5v-32.4c0-26.4-1.7-53.8-6-80.2" fill="#ffa800"/><path d="M510.3 338.8c-.9-5.1-3.4-21.4-3.4-26.5-.9-12.8-.9-11-3.4-23-9.4-42.7-6-28.2-8.6-42.7-8.5-52-6-88.7 0-147.6 1.7-12-8.5-23-20.4-23h-22.2c12 0 22.2 10.2 20.4 23-6.8 65.7-8.5 106.7 5.2 171.5L512 443.7v-73.4c0-10.2 0-20.4-1.7-31.5" fill="#ffe100"/><path d="M102.4 221.9a17 17 0 0 1-17-17.1v-34.1c0-9.4 7.6-17.1 17-17.1s17 7.7 17 17v34.2a17 17 0 0 1-17 17" fill="#00da6c"/><path d="M409.6 307.2c0 28.2-23 51.2-51.2 51.2-5.1 0-25.6-23-25.6-51.2s20.5-51.2 25.6-51.2c28.2 0 51.2 23 51.2 51.2" fill="#63d3fd"/><path d="M384 256c-4.3 0-8.5.9-12.8 1.7a51.2 51.2 0 0 1 0 99c4.3.8 8.5 1.7 12.8 1.7a51.3 51.3 0 0 0 0-102.4" fill="#3db9f9"/><path d="M483 512H8.5a8 8 0 0 1-8.5-8.5V401c0-5.2 3.4-8.6 8.5-8.6h264.6V196.3h-85.4v69a33.3 33.3 0 0 1-33.2 33.4H53.8a33 33 0 0 1-32.5-25.6C7.7 217.6 0 186 0 127V76.8c0-5.1 3.4-8.5 8.5-8.5h446.3c8.6 0 16.2 3.4 21.4 9.4a31 31 0 0 1 7.6 22.1c-6.8 67.5-10.2 105.9 2.6 169l19.6 98.1c4.3 27.3 6 54.6 6 82v32.4c0 17.9-12.8 30.7-29 30.7M17 495h466c6.8 0 12-5.2 12-12v-32.4c0-26.5-1.8-53-6-78.5l-19.7-99c-12.8-65.7-10.2-106.7-2.5-174.1 0-3.4-.9-6.8-3.4-9.4-2.6-2.6-5.2-4.3-8.6-4.3H17.1v41.8c0 57.2 6.8 88 20.4 141.7 1.8 7.7 8.6 12 16.3 12h100.7c9.3 0 16.2-7.7 16.2-16.3v-76.8a8 8 0 0 1 8.5-8.5h102.4c5.1 0 8.5 3.4 8.5 8.5v213.4a8 8 0 0 1-8.5 8.5H17.1z"/><path d="M102.4 358.4c-5.1 0-8.5-3.4-8.5-8.5V290c0-5 3.4-8.5 8.5-8.5s8.5 3.4 8.5 8.5v60a8 8 0 0 1-8.5 8.5m0-196.4c-5.1 0-8.5-3.4-8.5-8.5v-34.1c0-5.2 3.4-8.6 8.5-8.6s8.5 3.4 8.5 8.6v34.1c0 5.1-3.4 8.5-8.5 8.5m34.1-76.8a8 8 0 0 1-8.5-8.5V25.6c0-5.1 3.4-8.5 8.5-8.5s8.6 3.4 8.6 8.5v51.2c0 5.1-3.4 8.5-8.6 8.5m239 0c-5.2 0-8.6-3.4-8.6-8.5V25.6c0-5.1 3.4-8.5 8.6-8.5a8 8 0 0 1 8.5 8.5v51.2c0 5.1-3.4 8.5-8.5 8.5M102.4 256c-5.1 0-8.5-3.4-8.5-8.5v-25.6c0-5.2 3.4-8.6 8.5-8.6s8.5 3.4 8.5 8.6v25.6a8 8 0 0 1-8.5 8.5"/><path d="M119.5 332.8H85.3a8 8 0 0 1-8.5-8.5c0-5.2 3.4-8.6 8.5-8.6h34.2c5 0 8.5 3.4 8.5 8.6a8 8 0 0 1-8.5 8.5m-17.1-102.4a25 25 0 0 1-25.6-25.6v-34.1c0-14.5 11-25.6 25.6-25.6s25.6 11 25.6 25.6v34.1a25 25 0 0 1-25.6 25.6m0-68.3c-5.1 0-8.5 3.4-8.5 8.6v34.1c0 5.1 3.4 8.5 8.5 8.5s8.5-3.4 8.5-8.5v-34.1c0-5.2-3.4-8.6-8.5-8.6M384 367c-33.3 0-59.7-26.5-59.7-59.8s26.4-59.7 59.7-59.7 59.7 26.4 59.7 59.7-26.4 59.7-59.7 59.7m0-102.5a42.3 42.3 0 0 0-42.7 42.7 42.3 42.3 0 0 0 42.7 42.7 42.3 42.3 0 0 0 42.7-42.7 42.3 42.3 0 0 0-42.7-42.7M375.5 401c0 5.2-3.4 8.6-8.6 8.6s-8.5-3.4-8.5-8.5 3.4-8.6 8.5-8.6 8.6 3.4 8.6 8.6m34.1-.1c0 5.2-3.4 8.6-8.5 8.6s-8.6-3.4-8.6-8.5 3.4-8.6 8.6-8.6 8.5 3.4 8.5 8.6m-51.2-187.8c0 5.2-3.4 8.6-8.5 8.6-5.2 0-8.6-3.4-8.6-8.6 0-5 3.4-8.5 8.6-8.5a8 8 0 0 1 8.5 8.5m34.1 0c0 5.2-3.4 8.6-8.5 8.6s-8.5-3.4-8.5-8.6c0-5 3.4-8.5 8.5-8.5s8.5 3.4 8.5 8.5m34.2 0c0 5.2-3.4 8.6-8.6 8.6s-8.5-3.4-8.5-8.6c0-5 3.4-8.5 8.5-8.5s8.6 3.4 8.6 8.5M273 136.5h-85.3c-5 0-8.5-3.4-8.5-8.5s3.4-8.5 8.5-8.5h85.4c5 0 8.5 3.4 8.5 8.5s-3.4 8.5-8.5 8.5m-93.9 307.2H8.5c-5 0-8.5-3.4-8.5-8.5s3.4-8.5 8.5-8.5h170.7c5.1 0 8.5 3.4 8.5 8.5s-3.4 8.5-8.5 8.5m-85.3 34.2H8.5c-5 0-8.5-3.4-8.5-8.6a8 8 0 0 1 8.5-8.5H94a8 8 0 0 1 8.5 8.5c0 5.2-3.4 8.6-8.5 8.6M341.3 51.2H170.7c-5.2 0-8.6-3.4-8.6-8.5V8.5c0-5 3.4-8.5 8.6-8.5h170.6c5.2 0 8.6 3.4 8.6 8.5v34.2c0 5-3.4 8.5-8.6 8.5m-162.1-17h153.6V17H179.2z"/><path d="M170.7 34.1h-34.2c-5 0-8.5-3.4-8.5-8.5s3.4-8.5 8.5-8.5h34.2c5 0 8.5 3.4 8.5 8.5s-3.4 8.5-8.5 8.5m204.8 0h-34.2c-5 0-8.5-3.4-8.5-8.5s3.4-8.5 8.5-8.5h34.2c5 0 8.5 3.4 8.5 8.5s-3.4 8.5-8.5 8.5M213.3 51.2a8 8 0 0 1-8.5-8.5V8.5a8 8 0 0 1 8.5-8.5c5.2 0 8.6 3.4 8.6 8.5v34.2c0 5-3.4 8.5-8.6 8.5m42.7 0c-5.1 0-8.5-3.4-8.5-8.5V8.5c0-5 3.4-8.5 8.5-8.5s8.5 3.4 8.5 8.5v34.2a8 8 0 0 1-8.5 8.5m42.7 0c-5.2 0-8.6-3.4-8.6-8.5V8.5c0-5 3.4-8.5 8.6-8.5s8.5 3.4 8.5 8.5v34.2a8 8 0 0 1-8.5 8.5M401 332.8c-2.5 0-4.2-.9-6-2.6l-34-34a8.2 8.2 0 0 1 0-12 8.2 8.2 0 0 1 12 0l34 34a8.2 8.2 0 0 1 0 12 7.7 7.7 0 0 1-6 2.6"/><path d="M367 332.8c-2.6 0-4.3-.9-6-2.6a8.2 8.2 0 0 1 0-12l34-34a8.2 8.2 0 0 1 12 0 8.2 8.2 0 0 1 0 12l-34 34a7.7 7.7 0 0 1-6 2.6"/></svg>