<svg xmlns="http://www.w3.org/2000/svg" viewBox="0 0 512.1 512.1" xml:space="preserve"><g fill="#ffe100"><path d="M145 481.5c-2.6 0-4.3-.9-6-2.6L25.3 366a58.4 58.4 0 0 1 0-83.4 59.7 59.7 0 0 1 83.3 0l35.6 35.6a8.4 8.4 0 0 1 0 12.2 8.4 8.4 0 0 1-12.2 0l-35.6-35.6a41.4 41.4 0 0 0-59 0 41.3 41.3 0 0 0-12.1 29.5c0 11.3 4.3 21.7 12.1 29.5l113.7 113.7a8.4 8.4 0 0 1 0 12.1 16 16 0 0 1-6 1.8M270.9 170a8 8 0 0 1-6.1-2.7l-21.7-21.7a58.4 58.4 0 0 1 0-83.3 59 59 0 0 1 83.3.9l49.5 49.5c3.4 3.4 3.4 8.6 0 12.1s-8.7 3.5-12.2 0l-49.4-49.5a41.4 41.4 0 0 0-59 0c-7.9 7.9-12.2 18.3-12.2 29.5s4.3 21.7 12.2 29.6l21.6 21.6a8.4 8.4 0 0 1 0 12.2c-1.7.9-3.4 1.7-6 1.7m0 192.7a56.5 56.5 0 0 1-40-16.5l-28.6-28.6c-3.5-3.5-3.5-8.7 0-12.2s8.7-3.5 12.2 0L243 334c16.5 16.5 43.4 13 59 0a42 42 0 0 0 0-58.1l-20.8-21.7a8.4 8.4 0 0 1 0-12.1 8.4 8.4 0 0 1 12.1 0l20.9 21.7a59.7 59.7 0 0 1 0 83.3 71.7 71.7 0 0 1-43.4 15.6m179.7-184.1c-17.3 0-34.7-8.7-51.2-25.2a8.4 8.4 0 0 1 0-12.1 8.4 8.4 0 0 1 12.2 0c27.7 27.8 53.8 26 85.9-4.3a8.4 8.4 0 0 1 12.1 0 8.4 8.4 0 0 1 0 12.1c-20 20-39.9 29.5-59 29.5"/><path d="M436.6 48.4a50.3 50.3 0 0 0-44.2-13.8c5.2 1.7 10.4 6 18.2 13.8 19 19.1 19 66 0 85L17.5 465l419.1-331.5c20-19.1 20-66 0-85"/><path d="M394.1 53.6c-19-19-25.2-19-45.1 0L8.8 465l385.3-340.2c19-19 19-51.2 0-71.2"/></g><path d="M390.6 39.8c-13 9.5-26 28.6-37.3 39.9L13.1 465 353.3 53.6z" fill="#fff"/><path d="M419.3 53.6A52.9 52.9 0 0 0 375 39.8c5.2 1.7 10.4 6 18.2 13.8a51.4 51.4 0 0 1 0 71.2L8 465l411.4-340.2c20-19 20-51.2 0-71.2" fill="#ffa800"/><path d="M8.8 473.7c-2.6 0-4.3-1-6-2.6a8.2 8.2 0 0 1-1-11.3L342 48.4a59 59 0 0 1 83.3-.8 59.7 59.7 0 0 1 0 83.3L14 471.9c-.9.9-3.5 1.8-5.2 1.8M384.6 47.6A41.3 41.3 0 0 0 355 59.7L74 400l340.2-282a41 41 0 0 0 11.2-28.7 41.3 41.3 0 0 0-40.7-41.6"/><path d="M356 126.5c-2.7 0-4.4-.8-6.2-2.6a8.4 8.4 0 0 1 0-12.1l28.7-28.6a8.4 8.4 0 0 1 12.1 0 8.4 8.4 0 0 1 0 12.1L362 123.9a7.9 7.9 0 0 1-6 2.6"/><path d="M270.9 154.3a8 8 0 0 1-6.1-2.6L243.1 131a58.4 58.4 0 0 1 0-83.3 59.7 59.7 0 0 1 83.3 0L376 97c3.4 3.5 3.4 8.7 0 12.2s-8.7 3.5-12.2 0l-49.4-49.5a41.4 41.4 0 0 0-59 0c-8 7.8-12.4 18.3-12.4 29.5s4.3 21.7 12.2 29.5l21.6 20.9a8.4 8.4 0 0 1 0 12.1c-1.7 2.6-3.4 2.6-6 2.6M276 353a56.5 56.5 0 0 1-39.8-16.5L208.4 308a8.4 8.4 0 0 1 0-12.1 8.4 8.4 0 0 1 12.1 0l28.7 28.6c16.5 16.5 43.4 13 59 0a42 42 0 0 0 0-58.1l-21.7-21.7a8.4 8.4 0 0 1 0-12.2 8.4 8.4 0 0 1 12.1 0l21.7 20.8a59.7 59.7 0 0 1 0 83.3 73 73 0 0 1-44.2 16.5M145 465c-2.6 0-4.3-.9-6-2.6L25.3 349.6a58.4 58.4 0 0 1 0-83.3 59.7 59.7 0 0 1 83.3 0l35.6 35.5c3.4 3.5 3.4 8.7 0 12.2s-8.7 3.5-12.2 0l-35.6-35.6a41.4 41.4 0 0 0-59 0c-7.8 7.8-12.1 18.2-12.1 29.5s4.3 21.7 12.1 29.5l113.7 113.7a8.4 8.4 0 0 1 0 12.1 16 16 0 0 1-6 1.8m305.4-295c-17.3 0-34.7-8.7-51.2-25.2a8.4 8.4 0 0 1 0-12.2 8.4 8.4 0 0 1 12.2 0c27.7 27.8 53.8 26 85.9-4.3 3.4-3.5 8.6-3.5 12.1 0s3.5 8.7 0 12.1c-20 20-39.9 29.5-59 29.5"/></svg>