<svg xmlns="http://www.w3.org/2000/svg" viewBox="0 0 512 512" xml:space="preserve"><g fill="#ffe100"><path d="M188.1 426.7H51.6a51.3 51.3 0 0 1 0-102.4h42.7c5 0 8.5 3.4 8.5 8.5s-3.4 8.5-8.5 8.5H51.6a34.2 34.2 0 0 0-34.1 34.2 34.2 34.2 0 0 0 34.1 34.1h136.5c5.2 0 8.6 3.4 8.6 8.5s-3.4 8.6-8.6 8.6m-110.9-256H51.6a51.3 51.3 0 0 1 0-102.4h59.7c5.2 0 8.6 3.4 8.6 8.5s-3.4 8.5-8.6 8.5H51.6a34.2 34.2 0 0 0 0 68.3h25.6c5.1 0 8.5 3.4 8.5 8.5 0 5.2-3.4 8.6-8.5 8.6m102.4 128h-34.1c-5.1 0-8.6-3.4-8.6-8.6 0-5 3.5-8.5 8.6-8.5h34.1a34.2 34.2 0 0 0 .1-68.3H154c-5.1 0-8.5-3.4-8.5-8.5s3.4-8.5 8.5-8.5h25.6a51.3 51.3 0 0 1 0 102.4M162.5 85.3c-5 0-8.5-3.4-8.5-8.5s3.4-8.5 8.5-8.5c28.2 0 51.2-23 51.2-51.2 0-5.2 3.5-8.6 8.6-8.6 5 0 8.5 3.4 8.5 8.6a68.5 68.5 0 0 1-68.3 68.2"/><path d="M128.4 8.5a42.3 42.3 0 0 0-42.7 42.7l25.6 452.3L154 51.2c0-23.9-1.7-42.7-25.6-42.7"/></g><path d="M119.9 9.4c-2.6-.9-6-.9-8.6-.9a42.3 42.3 0 0 0-42.6 42.7l42.6 452.3L85.7 51.2A43 43 0 0 1 120 9.4" fill="#fff"/><path d="M390.4 503.5h-53.8c-12 0-20.5-8.6-20.5-19.7v-48.6h94v48.6c0 11.1-8.6 19.7-19.7 19.7" fill="#fecc00"/><path d="M410 435.2v48.6c0 11.1-8.5 19.7-19.6 19.7H416c11 0 19.6-8.6 19.6-19.7v-48.6z" fill="#ffa800"/><path d="M410 76.8h-93.9V28.2c0-11.1 8.6-19.7 19.7-19.7h53.7c12 0 20.5 8.6 20.5 19.7z" fill="#fecc00"/><path d="M416 8.5h-25.6c11 0 19.6 8.6 19.6 19.7v48.6h25.6V28.2c0-11.1-8.5-19.7-19.6-19.7" fill="#ffa800"/><path d="M458.6 435.2H267.5c-11 0-19.6-8.5-19.6-19.6V96.4c0-11 8.5-19.6 19.6-19.6h190.3c12 0 20.5 8.5 20.5 19.6v318.3c0 12-8.6 20.5-19.7 20.5" fill="#ffe100"/><path d="M484.2 76.8h-25.6c11.1 0 19.7 8.5 19.7 19.6v318.3c0 11.1-8.6 19.6-19.7 19.6h25.6c11.1 0 19.7-8.5 19.7-19.6V96.4c0-11-8.6-19.6-19.7-19.6" fill="#ffa800"/><path d="M484.2 443.7H267.5a28.4 28.4 0 0 1-28.2-28.1V96.4a28.4 28.4 0 0 1 28.2-28.1h215.9a28.4 28.4 0 0 1 28.2 28.1v318.3c.8 16.2-12 29-27.4 29M267.5 85.3c-6 0-11 5.2-11 11.1v318.3c0 6 5 11.1 11 11.1h215.9c6 0 11-5.1 11-11V96.3c1-6-4.2-11-10.2-11z"/><path d="M416 512h-79.4a28.4 28.4 0 0 1-28.1-28.2v-57.1H445v57.1a29.8 29.8 0 0 1-29 28.2m-91.3-68.3v40.1c0 6 5 11.1 11 11.1h79.4c6 0 11.1-5 11.1-11v-40.2zM444.1 85.3H307.6V28.2A28.4 28.4 0 0 1 335.8 0H415c16.2 0 29 12.8 29 28.2zm-119.4-17H427V28.2c0-6-5.1-11.1-11.1-11.1h-79.4c-6.8 0-12 5-12 11zM500 84.2 252.7 229.3l-8.7-14.7L491.3 69.5zm8.5 214.2L261.3 434.9l-8.3-15 247.3-136.5z"/><path d="m506.3 281.8-4.4 16.5-255.6-68 4.4-16.5z"/><path d="M508.4 135.3 320.3 246.5l-8.7-14.7 188-111.2zm1.1 51.1-128 76.9-8.8-14.7 128-76.9zm-2.3 51.1-68 42.5-9.1-14.5 68-42.5zm-64.9 81.1-4.5 16.5-192.5-53.4 4.6-16.4zm-59.5 32.9-4.4 16.5-132.8-35.4 4.4-16.5zm-55.1 33.1-5.4 16.2-77-25.6 5.5-16.2zm180.2-26.9-145 85-8.7-14.7 145-85zM405.6 84 252 169.7l-8.3-15 153.6-85.5zM111.3 512c-4.2 0-7.6-3.4-8.5-7.7L60.1 52.1c0-29 23-52.1 51.2-52.1s51.2 23 51.2 51.2L120 504.3c-.9 4.3-4.3 7.7-8.6 7.7m0-495a34.2 34.2 0 0 0-34 34.2l34 361.8 34.2-362.7a34 34 0 0 0-34.2-33.2"/><path d="M111.3 93.9c-5 0-8.5-3.4-8.5-8.6V51.2c0-5.1 3.4-8.5 8.5-8.5s8.6 3.4 8.6 8.5v34.1c0 5.2-3.4 8.6-8.6 8.6"/><path d="M77.2 162.1H51.6a51.3 51.3 0 0 1 0-102.4h59.7c5.2 0 8.6 3.4 8.6 8.6s-3.4 8.5-8.6 8.5H51.6a34.2 34.2 0 0 0 0 68.3h25.6c5.1 0 8.5 3.4 8.5 8.5s-3.4 8.5-8.5 8.5m93.8 128h-34c-5.2 0-8.6-3.4-8.6-8.5s3.4-8.5 8.5-8.5h34.2a34.2 34.2 0 0 0 0-68.3h-25.6c-5.1 0-8.6-3.4-8.6-8.5 0-5.2 3.5-8.6 8.6-8.6H171a51.3 51.3 0 0 1 0 102.4m17.1 128H51.6a51.3 51.3 0 0 1 0-102.4h42.7c5 0 8.5 3.4 8.5 8.6a8 8 0 0 1-8.5 8.5H51.6a34.2 34.2 0 0 0 0 68.3h136.5c5.2 0 8.6 3.4 8.6 8.5s-3.4 8.5-8.6 8.5M154 76.8c-5.1 0-8.5-3.4-8.5-8.5s3.4-8.6 8.5-8.6c28.2 0 51.2-23 51.2-51.2a8 8 0 0 1 8.5-8.5c5.2 0 8.6 3.4 8.6 8.5A68.5 68.5 0 0 1 154 76.8"/></svg>